<svg xmlns="http://www.w3.org/2000/svg" version="1.1" xmlns:xlink="http://www.w3.org/1999/xlink" xmlns:svgjs="http://svgjs.com/svgjs" width="1440" height="560" preserveAspectRatio="none" viewBox="0 0 1440 560"><g mask="url(&quot;#SvgjsMask1148&quot;)" fill="none"><g mask="url(&quot;#SvgjsMask1149&quot;)"><path d="M1275 275L1225 325M1475 275L1425 275L1375 275L1325 275L1275 275L1225 275L1175 275" stroke="rgba(229, 214, 216, 1)" stroke-width="8.33"></path><path d="M1162.5 275 a12.5 12.5 0 1 0 25 0 a12.5 12.5 0 1 0 -25 0zM1212.5 325 a12.5 12.5 0 1 0 25 0 a12.5 12.5 0 1 0 -25 0z" fill="rgba(229, 214, 216, 1)"></path><path d="M1475 325L1425 325L1375 325L1325 325" stroke="rgba(229, 214, 216, 1)" stroke-width="8.33"></path><path d="M1312.5 325 a12.5 12.5 0 1 0 25 0 a12.5 12.5 0 1 0 -25 0z" fill="rgba(229, 214, 216, 1)"></path><path d="M1475 225L1425 225L1375 225L1325 225L1275 225L1225 225L1175 225" stroke="rgba(229, 214, 216, 1)" stroke-width="8.33"></path><path d="M1162.5 225 a12.5 12.5 0 1 0 25 0 a12.5 12.5 0 1 0 -25 0z" fill="rgba(229, 214, 216, 1)"></path><path d="M1275 375L1225 425L1175 425L1125 425M1425 375L1375 425L1325 425L1275 425M1475 375L1425 375L1375 375L1325 375L1275 375L1225 375L1175 325" stroke="rgba(229, 214, 216, 1)" stroke-width="8.33"></path><path d="M1162.5 325 a12.5 12.5 0 1 0 25 0 a12.5 12.5 0 1 0 -25 0zM1112.5 425 a12.5 12.5 0 1 0 25 0 a12.5 12.5 0 1 0 -25 0zM1262.5 425 a12.5 12.5 0 1 0 25 0 a12.5 12.5 0 1 0 -25 0z" fill="rgba(229, 214, 216, 1)"></path><path d="M1275 175L1225 125L1175 125M1325 175L1275 125M1425 175L1375 125L1325 125M1475 175L1425 175L1375 175L1325 175L1275 175L1225 175L1175 175L1125 175" stroke="rgba(229, 214, 216, 1)" stroke-width="8.33"></path><path d="M1112.5 175 a12.5 12.5 0 1 0 25 0 a12.5 12.5 0 1 0 -25 0zM1162.5 125 a12.5 12.5 0 1 0 25 0 a12.5 12.5 0 1 0 -25 0zM1262.5 125 a12.5 12.5 0 1 0 25 0 a12.5 12.5 0 1 0 -25 0zM1312.5 125 a12.5 12.5 0 1 0 25 0 a12.5 12.5 0 1 0 -25 0z" fill="rgba(229, 214, 216, 1)"></path></g></g><defs><mask id="SvgjsMask1148"><rect width="1440" height="560" fill="#ffffff"></rect></mask><mask id="SvgjsMask1149"><rect width="1440" height="560" fill="white"></rect><path d="M1168.75 275 a6.25 6.25 0 1 0 12.5 0 a6.25 6.25 0 1 0 -12.5 0zM1218.75 325 a6.25 6.25 0 1 0 12.5 0 a6.25 6.25 0 1 0 -12.5 0z" fill="black"></path><path d="M1318.75 325 a6.25 6.25 0 1 0 12.5 0 a6.25 6.25 0 1 0 -12.5 0z" fill="black"></path><path d="M1168.75 225 a6.25 6.25 0 1 0 12.5 0 a6.25 6.25 0 1 0 -12.5 0z" fill="black"></path><path d="M1168.75 325 a6.25 6.25 0 1 0 12.5 0 a6.25 6.25 0 1 0 -12.5 0zM1118.75 425 a6.25 6.25 0 1 0 12.5 0 a6.25 6.25 0 1 0 -12.5 0zM1268.75 425 a6.25 6.25 0 1 0 12.5 0 a6.25 6.25 0 1 0 -12.5 0z" fill="black"></path><path d="M1118.75 175 a6.25 6.25 0 1 0 12.5 0 a6.25 6.25 0 1 0 -12.5 0zM1168.75 125 a6.25 6.25 0 1 0 12.5 0 a6.25 6.25 0 1 0 -12.5 0zM1268.75 125 a6.25 6.25 0 1 0 12.5 0 a6.25 6.25 0 1 0 -12.5 0zM1318.75 125 a6.25 6.25 0 1 0 12.5 0 a6.25 6.25 0 1 0 -12.5 0z" fill="black"></path></mask></defs></svg>