<svg xmlns="http://www.w3.org/2000/svg" version="1.1" xmlns:xlink="http://www.w3.org/1999/xlink" xmlns:svgjs="http://svgjs.com/svgjs" width="1440" height="560" preserveAspectRatio="none" viewBox="0 0 1440 560"><g mask="url(&quot;#SvgjsMask1022&quot;)" fill="none"><path d="M405.06 172.16L413.19 172.16L413.19 180.29L405.06 180.29z" stroke="rgba(249, 166, 2, 1)"></path><path d="M1226.89 281.97 a27.99 27.99 0 1 0 55.98 0 a27.99 27.99 0 1 0 -55.98 0z" fill="rgba(249, 166, 2, 1)"></path><path d="M991.68 255.23L1045.77 255.23L1045.77 309.32L991.68 309.32z" fill="rgba(249, 166, 2, 1)"></path><path d="M824.72 124.16L879.89 124.16L879.89 170.52L824.72 170.52z" stroke="rgba(5, 129, 143, 1)"></path><path d="M76.87 542.16L102.66 542.16L102.66 548.52L76.87 548.52z" fill="rgba(249, 166, 2, 1)"></path><path d="M737.43 266.37 a49.01 49.01 0 1 0 98.02 0 a49.01 49.01 0 1 0 -98.02 0z" stroke="rgba(5, 129, 143, 1)"></path><path d="M1189.67 471.1L1237.69 471.1L1237.69 521.21L1189.67 521.21z" stroke="rgba(249, 166, 2, 1)"></path><path d="M670.24 44.65a13.79 13.79 0 1 0-22.56-15.86z" stroke="rgba(249, 166, 2, 1)"></path><path d="M228.04 7.43 a6.99 6.99 0 1 0 13.98 0 a6.99 6.99 0 1 0 -13.98 0z" fill="rgba(5, 129, 143, 1)"></path><path d="M140.9 373.11a36.91 36.91 0 1 0 53.61 50.74z" fill="rgba(249, 166, 2, 1)"></path><path d="M786.04 206.91 a2.77 2.77 0 1 0 5.54 0 a2.77 2.77 0 1 0 -5.54 0z" fill="rgba(249, 166, 2, 1)"></path><path d="M1135.31 454.5a3.79 3.79 0 1 0-4.71 5.94z" fill="rgba(249, 166, 2, 1)"></path><path d="M508.84 470.58L545.68 470.58L545.68 521.39L508.84 521.39z" fill="rgba(249, 166, 2, 1)"></path><path d="M1259.05 14.5L1307.82 14.5L1307.82 63.27L1259.05 63.27z" fill="rgba(249, 166, 2, 1)"></path><path d="M1376.88 5.53 a5.08 5.08 0 1 0 10.16 0 a5.08 5.08 0 1 0 -10.16 0z" stroke="rgba(249, 166, 2, 1)"></path><path d="M1137.94 541.44L1178.59 541.44L1178.59 590.24L1137.94 590.24z" stroke="rgba(5, 129, 143, 1)"></path><path d="M293.91 362.95L301.56 362.95L301.56 390.19L293.91 390.19z" stroke="rgba(249, 166, 2, 1)"></path><path d="M1094.93 106.6a4.35 4.35 0 1 0 8.46 2.06z" fill="rgba(249, 166, 2, 1)"></path><path d="M690.28 348.27L697.58 348.27L697.58 355.57L690.28 355.57z" fill="rgba(249, 166, 2, 1)"></path><path d="M310.49 434.59L340.71 434.59L340.71 464.81L310.49 464.81z" stroke="rgba(249, 166, 2, 1)"></path><path d="M637.69 415.69a16.29 16.29 0 1 0 21.18 24.76z" fill="rgba(5, 129, 143, 1)"></path><path d="M218.93 338.49L262.43 338.49L262.43 381.99L218.93 381.99z" fill="rgba(249, 166, 2, 1)"></path><path d="M965.14 71.85 a47.56 47.56 0 1 0 95.12 0 a47.56 47.56 0 1 0 -95.12 0z" stroke="rgba(249, 166, 2, 1)"></path><path d="M911.42 357.08L956.74 357.08L956.74 401.91L911.42 401.91z" fill="rgba(249, 166, 2, 1)"></path><path d="M583.43 146.91L623.24 146.91L623.24 188.99L583.43 188.99z" fill="rgba(249, 166, 2, 1)"></path><path d="M45.42 170.77a29.52 29.52 0 1 0-58.71 6.27z" fill="rgba(5, 129, 143, 1)"></path><path d="M437.2 321.67 a26.86 26.86 0 1 0 53.72 0 a26.86 26.86 0 1 0 -53.72 0z" stroke="rgba(249, 166, 2, 1)"></path><path d="M429.97 249.87L435.73 249.87L435.73 292.01L429.97 292.01z" stroke="rgba(249, 166, 2, 1)"></path><path d="M454.69 335.53L475.85 335.53L475.85 355.76L454.69 355.76z" stroke="rgba(249, 166, 2, 1)"></path><path d="M176.46 226.77L198.04 226.77L198.04 248.35L176.46 248.35z" fill="rgba(249, 166, 2, 1)"></path><path d="M2.85 102.23L32.64 102.23L32.64 107.72L2.85 107.72z" fill="rgba(5, 129, 143, 1)"></path><path d="M877.37 351.38a40.07 40.07 0 1 0 71.64 35.92z" fill="rgba(249, 166, 2, 1)"></path><path d="M27.11 515.63 a7.57 7.57 0 1 0 15.14 0 a7.57 7.57 0 1 0 -15.14 0z" fill="rgba(5, 129, 143, 1)"></path></g><defs><mask id="SvgjsMask1022"><rect width="1440" height="560" fill="#ffffff"></rect></mask></defs></svg>