<svg xmlns="http://www.w3.org/2000/svg" version="1.1" xmlns:xlink="http://www.w3.org/1999/xlink" xmlns:svgjs="http://svgjs.com/svgjs" width="1440" height="560" preserveAspectRatio="none" viewBox="0 0 1440 560"><g mask="url(&quot;#SvgjsMask1020&quot;)" fill="none"><rect width="1440" height="560" x="0" y="0" fill="url(#SvgjsRadialGradient1021)"></rect><path d="M0 0L563.91 0L0 93.16z" fill="rgba(255, 255, 255, .1)"></path><path d="M0 93.16L563.91 0L969.22 0L0 127.55z" fill="rgba(255, 255, 255, .075)"></path><path d="M0 127.55L969.22 0L1020.9 0L0 379.64z" fill="rgba(255, 255, 255, .05)"></path><path d="M0 379.64L1020.9 0L1078.71 0L0 474.83z" fill="rgba(255, 255, 255, .025)"></path><path d="M1440 560L1031.32 560L1440 488.25z" fill="rgba(0, 0, 0, .1)"></path><path d="M1440 488.25L1031.32 560L510.80999999999995 560L1440 353.66999999999996z" fill="rgba(0, 0, 0, .075)"></path><path d="M1440 353.66999999999996L510.80999999999995 560L489.46999999999997 560L1440 140.35999999999996z" fill="rgba(0, 0, 0, .05)"></path><path d="M1440 140.36L489.4699999999999 560L245.3199999999999 560L1440 69.29000000000002z" fill="rgba(0, 0, 0, .025)"></path></g><defs><mask id="SvgjsMask1020"><rect width="1440" height="560" fill="#ffffff"></rect></mask><radialGradient cx="50%" cy="50%" r="772.53" gradientUnits="userSpaceOnUse" id="SvgjsRadialGradient1021"><stop stop-color="rgba(255, 255, 255, 1)" offset="0.8"></stop><stop stop-color="rgba(255, 255, 255, 1)" offset="1"></stop></radialGradient></defs></svg>